# xmcd
#
# Track frame offsets:
#	150
#	13125
#	32025
#	47400
#	66225
#	79350
#	90900
#	107400
#	125100
#	139575
#	153225
#	172050
#	187500
#	204450
#	221100
#	235875
#	254550
#
# Disc length: 3613
#
# Revision: 4
# Processed by: cddbd v1.5.2PL0 Copyright (c) Steve Scherf et al.
# Submitted via: kJams Lite (development) 1.0patch50.56
#
DISCID=e60e1b11
DTITLE=Various Artist - AH8016
DYEAR=2006
DGENRE=karaoke
TTITLE0=Rimes, LeAnn - Blue
TTITLE1=Byrd, Tracy - Keeper Of The Stars
TTITLE2=Brooks and Dunn - My Maria
TTITLE3=Twain, Shania - Any Man Of Mine
TTITLE4=Rimes, LeAnn - Hurt Me
TTITLE5=Montgomery, John Michael - Sold (The Grundy County Auction Incident)
TTITLE6=Mavericks, The - Here comes the rain
TTITLE7=Twain, Shania - If You're Not In It For Love
TTITLE8=McCready, Mindy - Guys Do It All The Time
TTITLE9=Ricochet - Daddy's Money
TTITLE10=McEntire, Reba - Starting Over Again
TTITLE11=Messina, Jo Dee - Heads Carolina, Tails California
TTITLE12=Various Artist - Parnell, Lee Roy − When A Woman Loves A Man
TTITLE13=Yearwood, Trisha - Believe Me Baby I Lied
TTITLE14=Hill, Faith - It Matters To Me
TTITLE15=Raye, Collin - One Boy, One Girl
TTITLE16=Lawrence, Tracy - Stars Over Texas
EXTD=
EXTT0=
EXTT1=
EXTT2=
EXTT3=
EXTT4=
EXTT5=
EXTT6=
EXTT7=
EXTT8=
EXTT9=
EXTT10=
EXTT11=
EXTT12=
EXTT13=
EXTT14=
EXTT15=
EXTT16=
PLAYORDER=
